<?xml version="1.0"?>
<svg xmlns="http://www.w3.org/2000/svg" xmlns:xlink="http://www.w3.org/1999/xlink" version="1.1" id="Layer_1" x="0px" y="0px" viewBox="0 0 512 512" style="enable-background:new 0 0 512 512;" xml:space="preserve" width="512px" height="512px"><g><g>
	<g>
		<path d="M256.029,0.001C256.02,0.001,256.01,0,256,0c-0.01,0-0.019,0.001-0.029,0.001C154.719,0.017,72.348,82.396,72.348,183.653    v144.695C72.348,429.614,154.734,512,256,512s183.652-82.386,183.652-183.652V183.653C439.652,82.396,357.282,0.017,256.029,0.001    z M256,133.566c9.206,0,16.696,7.49,16.696,16.696v33.391c0,9.206-7.49,16.696-16.696,16.696c-9.206,0-16.696-7.49-16.696-16.696    v-33.391C239.304,141.056,246.794,133.566,256,133.566z M406.261,328.348c0,82.854-67.407,150.261-150.261,150.261    s-150.261-67.407-150.261-150.261V183.653c0-77.211,58.539-140.996,133.565-149.328v68.722    c-19.433,6.892-33.391,25.45-33.391,47.215v33.391c0,27.618,22.469,50.087,50.087,50.087c27.618,0,50.087-22.469,50.087-50.087    v-33.391c0-21.766-13.959-40.323-33.391-47.215V34.325c75.026,8.332,133.565,72.117,133.565,149.328V328.348z" data-original="#000000" class="active-path" data-old_color="#000000" fill="#FFFFFF"/>
	</g>
</g></g> </svg>
